<svg width="36" height="32" viewBox="0 0 36 32" fill="none" xmlns="http://www.w3.org/2000/svg">
<path d="M34.6708 17.0325C35.75 18.7794 35.849 20.9625 34.9317 22.7999C34.0116 24.6344 32.2075 25.8678 30.1616 26.0516C28.1184 26.2355 26.122 25.3487 24.8886 23.7037H10.6658C9.43526 25.3487 7.4388 26.2355 5.39283 26.0516C3.34686 25.8678 1.54276 24.6344 0.6255 22.7999C-0.291756 20.9625 -0.195575 18.7794 0.883633 17.0325C1.96567 15.2857 3.87161 14.2228 5.92607 14.2228H17.779L15.9996 16.5927H19.5562L17.7797 14.2228H29.6326C31.6842 14.2228 33.593 15.2857 34.6722 17.0325H34.6708ZM23.1114 21.3331L21.3348 18.9632H14.2217L12.4452 21.3331H23.1121H23.1114Z" fill="#69D5FF"/>
<path d="M11.8518 26.0735H23.7047C23.7047 27.6471 23.0788 29.1549 21.9692 30.2645C20.8568 31.3769 19.349 32 17.7783 32C16.2075 32 14.6998 31.3762 13.5873 30.2645C12.4749 29.1549 11.8518 27.6471 11.8518 26.0735Z" fill="#69D5FF"/>
<path d="M21.9692 1.7355C23.0817 2.84795 23.7047 4.3529 23.7047 5.92645C23.7047 7.5 23.081 9.00212 21.9692 10.1174C20.8539 11.2298 19.3518 11.8529 17.7783 11.8529C16.2047 11.8529 14.6998 11.2291 13.5873 10.1146C12.4749 9.00212 11.8518 7.5 11.8518 5.92645C11.8518 4.3529 12.4756 2.84795 13.5873 1.7355C14.6998 0.623762 16.2047 0 17.7783 0C19.3518 0 20.8539 0.623762 21.9692 1.7355Z" fill="#69D5FF"/>
</svg>
