<svg width="136" height="32" viewBox="0 0 136 32" fill="none" xmlns="http://www.w3.org/2000/svg">
<g clip-path="url(#clip0_1127_3432)">
<path d="M135.785 24.1075C135.785 25.2751 134.907 26.075 133.818 26.075C132.728 26.075 131.845 25.2751 131.845 24.1075C131.845 22.9399 132.723 22.1245 133.818 22.1245C134.912 22.1245 135.785 22.9293 135.785 24.1075ZM135.395 24.1075C135.395 23.1295 134.722 22.4767 133.817 22.4767C132.912 22.4767 132.233 23.1295 132.233 24.1075C132.233 25.0856 132.928 25.7221 133.817 25.7221C134.706 25.7221 135.395 25.0701 135.395 24.1075ZM134.743 24.5234C134.627 24.86 134.327 25.1493 133.812 25.1493C133.175 25.1493 132.823 24.7334 132.823 24.0552C132.823 23.377 133.207 22.9767 133.828 22.9767C134.328 22.9767 134.628 23.266 134.728 23.645L134.333 23.7553C134.264 23.4611 134.059 23.3084 133.813 23.3084C133.491 23.3084 133.255 23.5453 133.255 24.0552C133.255 24.5651 133.491 24.8126 133.813 24.8126C134.044 24.8126 134.265 24.7122 134.344 24.418L134.743 24.5234Z" fill="black"/>
<path d="M44.5651 10.8479H47.3175V16.814H52.7419V10.8479H55.4936V25.7135H52.7419V19.3854H47.3175V25.7135H44.5651V10.8479Z" fill="black"/>
<path d="M57.5021 10.8479H60.1739V13.2991H57.5021V10.8479ZM57.5021 14.5848H60.1739V25.7135H57.5021V14.5848Z" fill="black"/>
<path d="M63.8691 22.2186C63.9095 23.0425 64.5318 23.5446 65.3359 23.5446C66.0389 23.5446 66.5813 23.1429 66.5813 22.3996C66.5813 21.7362 66.1393 21.4753 65.5771 21.2546C65.1952 21.0941 64.814 20.9937 64.4321 20.8727C63.3472 20.5311 61.5997 19.8282 61.5997 17.6584C61.5997 16.1316 62.785 14.2235 65.3564 14.2235C67.3649 14.2235 68.872 15.6096 68.9519 17.6386H66.28C66.2397 17.1966 65.959 16.7546 65.2758 16.7546C64.553 16.7546 64.2715 17.2164 64.2715 17.6988C64.2715 18.5828 65.3359 18.7836 65.9788 18.9449C67.3444 19.2659 69.2532 19.8692 69.2532 22.2391C69.2532 24.3883 67.6662 26.0764 65.2355 26.0764C62.6442 26.0764 61.2178 24.208 61.198 22.2193H63.8698L63.8691 22.2186Z" fill="black"/>
<path d="M70.297 10.8479H72.9689V15.4285C73.7928 14.4441 75.0176 14.2234 75.8416 14.2234C78.413 14.2234 80.181 16.0714 80.181 19.205V25.7135H77.5092V19.8076C77.5092 17.3168 76.3239 16.7545 75.2793 16.7545C73.1096 16.7545 72.9696 18.8239 72.9696 19.8076V25.7135H70.2977V10.8479H70.297Z" fill="black"/>
<path d="M92.9972 25.7136H90.5467V24.2072H90.5064C89.2207 25.9753 87.3727 26.0757 86.79 26.0757C83.9576 26.0757 81.3458 23.8459 81.3458 20.2497C81.3458 16.6535 83.797 14.2235 86.8699 14.2235C88.4569 14.2235 89.7023 14.8862 90.5057 16.1521H90.546V14.5849H92.9965V25.7136H92.9972ZM84.0177 20.2497C84.0177 22.1379 85.3437 23.5446 87.2921 23.5446C89.2405 23.5446 90.4859 22.1584 90.4859 20.1295C90.4859 18.1005 89.2199 16.7546 87.2921 16.7546C85.3642 16.7546 84.0177 18.2412 84.0177 20.2497Z" fill="black"/>
<path d="M97.3967 10.8479V15.7496H97.437C98.2807 14.7652 99.466 14.2227 100.832 14.2227C104.709 14.2227 106.377 17.3161 106.377 20.1492C106.377 22.9823 104.669 26.0756 100.913 26.0756C99.507 26.0756 98.1004 25.5332 97.2164 24.2072H97.176V25.7135H94.7249V10.8479H97.3967ZM97.2362 20.0084C97.2362 21.9773 98.6018 23.5438 100.551 23.5438C102.5 23.5438 103.705 22.077 103.705 20.169C103.705 18.2609 102.479 16.7538 100.551 16.7538C98.7227 16.7538 97.2362 18.1202 97.2362 20.0084Z" fill="black"/>
<path d="M109.931 21.3345C110.273 22.7002 111.418 23.5446 112.844 23.5446C113.709 23.5446 114.673 23.3034 115.335 22.5H118.349C116.862 26.0354 113.467 26.0757 112.945 26.0757C108.947 26.0757 107.059 22.7808 107.059 20.2299C107.059 17.679 108.967 14.2235 112.985 14.2235C116.38 14.2235 118.711 16.8353 118.711 20.15C118.711 20.5517 118.711 20.9336 118.651 21.3353H109.932L109.931 21.3345ZM115.918 18.964C115.536 17.5573 114.351 16.7539 112.985 16.7539C111.519 16.7539 110.334 17.6379 109.892 18.964H115.918Z" fill="black"/>
<path d="M122.347 21.3345C122.688 22.7002 123.833 23.5446 125.26 23.5446C126.124 23.5446 127.088 23.3034 127.75 22.5H130.764C129.277 26.0354 125.882 26.0757 125.36 26.0757C121.362 26.0757 119.474 22.7808 119.474 20.2299C119.474 17.679 121.382 14.2235 125.4 14.2235C128.796 14.2235 131.126 16.8353 131.126 20.15C131.126 20.5517 131.126 20.9336 131.066 21.3353H122.347L122.347 21.3345ZM128.333 18.964C127.951 17.5573 126.766 16.7539 125.4 16.7539C123.934 16.7539 122.749 17.6379 122.307 18.964H128.333Z" fill="black"/>
<path d="M34.7899 17.0325C35.8691 18.7794 35.9681 20.9625 35.0509 22.7999C34.1308 24.6344 32.3267 25.8678 30.2807 26.0516C28.2376 26.2355 26.2411 25.3487 25.0077 23.7037H10.785C9.5544 25.3487 7.55794 26.2355 5.51197 26.0516C3.466 25.8678 1.6619 24.6344 0.74464 22.7999C-0.172615 20.9625 -0.0764344 18.7794 1.00277 17.0325C2.08481 15.2857 3.99075 14.2228 6.04521 14.2228H17.8981L16.1188 16.5927H19.6753L17.8988 14.2228H29.7517C31.8033 14.2228 33.7121 15.2857 34.7913 17.0325H34.7899ZM23.2305 21.3331L21.454 18.9632H14.3408L12.5643 21.3331H23.2312H23.2305Z" fill="#69D5FF"/>
<path d="M11.9709 26.0736H23.8238C23.8238 27.6472 23.198 29.1549 22.0883 30.2646C20.9759 31.377 19.4681 32.0001 17.8974 32.0001C16.3267 32.0001 14.8189 31.3763 13.7064 30.2646C12.594 29.1549 11.9709 27.6472 11.9709 26.0736Z" fill="#69D5FF"/>
<path d="M22.0883 1.7355C23.2008 2.84795 23.8238 4.3529 23.8238 5.92645C23.8238 7.5 23.2001 9.00212 22.0883 10.1174C20.9731 11.2298 19.4709 11.8529 17.8974 11.8529C16.3238 11.8529 14.8189 11.2291 13.7064 10.1146C12.594 9.00212 11.9709 7.5 11.9709 5.92645C11.9709 4.3529 12.5947 2.84795 13.7064 1.7355C14.8189 0.623762 16.3238 0 17.8974 0C19.4709 0 20.9731 0.623762 22.0883 1.7355Z" fill="#69D5FF"/>
</g>
<defs>
<clipPath id="clip0_1127_3432">
<rect width="135.785" height="32" fill="white"/>
</clipPath>
</defs>
</svg>
