<svg width="48" height="48" viewBox="0 0 48 48" fill="none" xmlns="http://www.w3.org/2000/svg">
<path d="M41.6921 13.075C40.3307 13.0698 39.6505 11.4225 40.6146 10.4584C41.284 9.78906 41.284 8.70382 40.6146 8.03445L39.9377 7.3575C39.2684 6.6882 38.2073 6.72156 37.5355 7.38836C36.5693 8.34734 34.9235 7.66343 34.9235 6.30007C34.9235 5.35343 34.1561 4.58609 33.2095 4.58609H32.2893C31.3427 4.58609 30.5753 5.35351 30.5753 6.30007C30.5753 7.66562 28.9243 8.34945 27.9588 7.3839C27.2894 6.71453 26.2042 6.71453 25.5348 7.3839L24.8842 8.03453C24.2148 8.7039 24.2148 9.78914 24.8842 10.4585C25.8482 11.4226 25.168 13.0699 23.8068 13.0751C22.8602 13.0787 22.0864 13.8053 22.0864 14.7519V15.7093C22.0864 16.6559 22.8538 17.4233 23.8003 17.4233C25.1659 17.4233 25.8497 19.0743 24.8842 20.0398C24.2148 20.7092 24.2148 21.7945 24.8842 22.4638L25.5348 23.1144C26.2042 23.7838 27.2894 23.7838 27.9588 23.1144C28.9243 22.1489 30.5753 22.8327 30.5753 24.1983C30.5753 25.1449 31.3428 25.9123 32.2894 25.9123H33.2096C34.1562 25.9123 34.9236 25.1449 34.9236 24.1984C34.9236 22.8328 36.5746 22.149 37.5401 23.1145C38.2095 23.7839 39.2947 23.7839 39.9641 23.1145L40.6147 22.4639C41.2841 21.7945 41.2841 20.7093 40.6147 20.0399C39.6507 19.0759 40.3309 17.4285 41.6921 17.4234C42.6387 17.4198 43.4125 16.6931 43.4125 15.7466V14.7519C43.4125 13.8052 42.6386 13.0786 41.6921 13.075ZM33.0487 19.8487C30.2671 20.0245 27.974 17.7312 28.1498 14.9498C28.2947 12.6559 30.1561 10.7946 32.45 10.6496C35.2315 10.4738 37.5246 12.767 37.3489 15.5485C37.2039 17.8424 35.3425 19.7037 33.0487 19.8487Z" fill="#8C9BA6"/>
<path d="M41.6921 13.075C40.3308 13.0698 39.6505 11.4225 40.6147 10.4584C41.284 9.78906 41.284 8.70383 40.6147 8.03445L39.9377 7.3575C39.2684 6.6882 38.2073 6.72156 37.5355 7.38836C36.5694 8.34726 34.9235 7.66344 34.9235 6.3C34.9235 5.35336 34.1561 4.58601 33.2095 4.58601H32.2894C31.8644 4.58601 31.4758 4.74101 31.1764 4.99711C35.4929 6.40523 38.6123 10.4626 38.6123 15.2492C38.6123 20.0359 35.4929 24.0932 31.1764 25.5013C31.4759 25.7574 31.8644 25.9123 32.2894 25.9123H33.2095C34.1562 25.9123 34.9235 25.1449 34.9235 24.1984C34.9235 22.8328 36.5745 22.149 37.5401 23.1145C38.2094 23.7839 39.2947 23.7839 39.964 23.1145L40.6147 22.4639C41.284 21.7945 41.284 20.7093 40.6147 20.0399C39.6506 19.0759 40.3308 17.4284 41.6921 17.4234C42.6387 17.4198 43.4125 16.6931 43.4125 15.7466V14.752C43.4125 13.8052 42.6387 13.0786 41.6921 13.075Z" fill="#7C8B96"/>
<path d="M23.1915 29.0035C22.6681 28.9356 22.2763 28.4904 22.2763 27.9627V23.1621H14.9415V27.9627C14.9415 28.4904 14.5497 28.9356 14.0263 29.0035C14.0263 29.0035 12.6525 33.6267 18.6089 33.6267C24.5653 33.6267 23.1915 29.0035 23.1915 29.0035Z" fill="#FFECE3"/>
<path d="M17.476 23.1621V29.9901C17.476 30.5178 17.8678 30.963 18.3912 31.0309C19.4662 31.1705 21.3047 31.4423 22.8931 31.8419C23.648 30.5403 23.1915 29.0035 23.1915 29.0035C22.6681 28.9356 22.2763 28.4904 22.2763 27.9627V23.1621H17.476Z" fill="#FFDDCE"/>
<path d="M25.5602 16.4644H25.1165V15.9434V14.698C25.1165 12.9395 24.3946 11.2355 23.0621 10.0881C22.0174 9.18851 20.5488 8.40336 18.6089 8.38172C16.669 8.40336 15.2004 9.18851 14.1557 10.0881C12.8231 11.2355 12.1012 12.9395 12.1012 14.698V15.9434V16.4644H11.6575C11.0071 16.4644 10.4797 16.9917 10.4797 17.6422V18.9473C10.4797 19.5978 11.0071 20.1252 11.6575 20.1252H12.103C12.1397 21.8345 12.858 23.4798 14.1558 24.5972C15.2005 25.4967 16.669 26.282 18.609 26.3036C20.5489 26.282 22.0174 25.4968 23.0622 24.5972C24.3599 23.4798 25.0782 21.8345 25.1149 20.1252H25.5604C26.2108 20.1252 26.7382 19.5978 26.7382 18.9473V17.6422C26.738 16.9917 26.2107 16.4644 25.5602 16.4644Z" fill="#FFECE3"/>
<path d="M25.5602 16.4644H25.1165V15.9434V14.698C25.1165 12.9395 24.3946 11.2355 23.0621 10.0881C22.3524 9.47703 21.4469 8.91906 20.3313 8.61703L20.3302 20.1252C20.2935 21.8345 19.5752 23.4798 18.2775 24.5972C17.7156 25.0809 17.031 25.5314 16.2166 25.848C16.9165 26.1202 17.7123 26.2935 18.609 26.3036C20.5489 26.282 22.0174 25.4967 23.0622 24.5972C24.3599 23.4798 25.0782 21.8345 25.1149 20.1252H25.5604C26.2108 20.1252 26.7382 19.5978 26.7382 18.9473V17.6422C26.738 16.9916 26.2107 16.4644 25.5602 16.4644Z" fill="#FFDDCE"/>
<path d="M30.1413 43.4141C31.5158 43.4141 32.6301 42.2998 32.6301 40.9252V35.0995C32.6301 33.0827 31.4431 31.2547 29.6006 30.4344C27.9233 29.6876 24.7525 29.2061 23.1915 29.0035L18.6089 31.8697L14.0263 29.0035C12.4654 29.2061 9.29458 29.6876 7.61724 30.4344C5.77474 31.2547 4.58771 33.0827 4.58771 35.0995V40.9252C4.58771 42.2998 5.702 43.4141 7.07654 43.4141H30.1413Z" fill="#F5F5F5"/>
<path d="M29.6006 30.4344C27.9232 29.6876 24.7524 29.2061 23.1914 29.0035L19.6617 31.2112C21.3103 31.465 23.5021 31.8839 24.8001 32.4618C26.6426 33.2821 27.8296 35.1101 27.8296 37.127V42.9527C27.8296 43.1105 27.8143 43.2645 27.7863 43.4141H30.1412C31.5157 43.4141 32.63 42.2998 32.63 40.9253V35.0995C32.6301 33.0827 31.4431 31.2547 29.6006 30.4344Z" fill="#E0E0E0"/>
<path d="M21.1433 7.99414H16.0279C15.094 7.99414 14.3005 8.59273 14.0091 9.42719C13.8998 9.74 13.6013 9.94672 13.27 9.94672C12.0795 9.94672 11.1144 10.9118 11.1144 12.1023V16.597C11.1144 16.597 13.0058 16.5745 13.6456 17.2055C13.7801 17.3381 14.0073 17.2445 14.0073 17.0557V14.1009C14.0073 13.075 14.839 12.2434 15.8649 12.2434H15.8873C16.1946 12.2434 16.4986 12.2908 16.7891 12.3823C17.342 12.5564 17.9144 12.6608 18.494 12.6608H18.7236C19.3032 12.6608 19.8757 12.5564 20.4285 12.3823C20.719 12.2908 21.023 12.2434 21.3304 12.2434H21.3527C22.3787 12.2434 23.2103 13.0751 23.2103 14.1009V16.8416C23.2103 17.1184 23.4346 17.3427 23.7113 17.3427H23.7134C24.1381 17.3427 24.5507 17.2192 24.9169 17.0042C25.4901 16.6678 26.1032 16.597 26.1032 16.597V12.9542C26.1033 10.2148 23.8826 7.99414 21.1433 7.99414Z" fill="#616161"/>
<path d="M21.1433 7.99414H20.3313L20.3309 12.4112C20.3635 12.4015 20.3962 12.3924 20.4287 12.3822C20.7192 12.2907 21.0232 12.2433 21.3305 12.2433H21.3529C22.3788 12.2433 23.2105 13.075 23.2105 14.1009V16.8416C23.2105 17.1183 23.4348 17.3426 23.7115 17.3426H23.7136C24.1383 17.3426 24.5509 17.2191 24.9171 17.0041C25.4902 16.6677 26.1034 16.597 26.1034 16.597V12.9541C26.1034 10.2148 23.8827 7.99414 21.1433 7.99414Z" fill="#424242"/>
<path d="M12.6034 31.0166L15.2372 33.2773C15.6164 33.6027 16.1691 33.6263 16.5746 33.3343L18.6089 31.8697L14.0263 29.0035C13.7729 29.0364 13.4771 29.0766 13.1522 29.1241C12.2334 29.2585 11.8988 30.4118 12.6034 31.0166Z" fill="#E0E0E0"/>
<path d="M24.6144 31.0166L21.9805 33.2773C21.6014 33.6027 21.0487 33.6263 20.6431 33.3343L18.6089 31.8697L23.1915 29.0035C23.4448 29.0364 23.7406 29.0766 24.0655 29.1241C24.9844 29.2585 25.319 30.4118 24.6144 31.0166Z" fill="#E0E0E0"/>
<path d="M18.6089 31.8697L16.5746 33.3344L17.5368 34.6859H19.6809L20.6431 33.3344L18.6089 31.8697Z" fill="#FFC400"/>
<path d="M20.8618 43.4141L19.6809 34.6859H17.5368L16.3559 43.4141H20.8618Z" fill="#FFC400"/>
<path d="M32.413 10.0648C29.8135 10.2291 27.7293 12.3132 27.565 14.9127C27.3674 18.0401 29.9496 20.6321 33.0857 20.4334C35.6851 20.2691 37.7692 18.185 37.9335 15.5855C38.1312 12.4587 35.5499 9.86617 32.413 10.0648ZM36.7642 15.5116C36.637 17.5236 35.0239 19.1367 33.0117 19.2639C30.5713 19.4166 28.5817 17.4041 28.7345 14.9866C28.8617 12.9745 30.4748 11.3614 32.4869 11.2342C34.9143 11.0816 36.9176 13.0823 36.7642 15.5116Z" fill="#212121"/>
<path d="M41.6944 12.4891C40.8499 12.4859 40.432 11.4698 41.029 10.8727C41.4635 10.4383 41.7027 9.8607 41.7027 9.24633C41.7027 8.63195 41.4635 8.05445 41.029 7.62008L40.352 6.94313C39.4584 6.04945 38.0399 6.06227 37.1229 6.97234C36.5235 7.56711 35.5095 7.1443 35.5095 6.29984C35.5094 5.03172 34.4777 4 33.2095 4H32.2893C31.0211 4 29.9894 5.03172 29.9894 6.29992C29.9894 7.14516 28.9724 7.56891 28.373 6.96945C27.9386 6.535 27.361 6.29578 26.7467 6.29578C26.1324 6.29578 25.5549 6.535 25.1205 6.96945L24.4699 7.62008C24.2912 7.79875 24.1456 8.00297 24.036 8.22437C23.1933 7.70703 22.2027 7.40812 21.1435 7.40812H16.0281C14.871 7.40812 13.8374 8.1418 13.456 9.23383C13.4295 9.30969 13.3549 9.3607 13.2701 9.3607C11.7585 9.3607 10.5286 10.5905 10.5286 12.1022C10.5286 12.4258 10.791 12.688 11.1145 12.688C11.4381 12.688 11.7003 12.4257 11.7003 12.1022C11.7003 11.2366 12.4045 10.5325 13.27 10.5325C13.8523 10.5325 14.3716 10.1659 14.5622 9.62023C14.7795 8.99797 15.3685 8.57992 16.028 8.57992H21.1434C23.5553 8.57992 25.5176 10.5422 25.5176 12.9541V16.1231C24.6103 16.378 24.4891 16.718 23.7965 16.7544V14.1008C23.7965 12.7534 22.7003 11.6573 21.353 11.6573H21.3306C20.3274 11.6573 19.9176 12.0747 18.7238 12.0747H18.4943C17.313 12.0747 16.8828 11.6573 15.8875 11.6573H15.8652C14.5178 11.6573 13.4217 12.7534 13.4217 14.1008V16.3849C12.867 16.1502 12.1897 16.0615 11.7006 16.0288V14.8742C11.7006 14.5506 11.4382 14.2884 11.1147 14.2884C10.7911 14.2884 10.5288 14.5507 10.5288 14.8742V16.288C10.1306 16.6188 9.89416 17.1106 9.89416 17.642V18.9472C9.89416 19.8845 10.6292 20.6534 11.5531 20.7078C11.7287 22.4059 12.5202 23.9616 13.7737 25.041C13.9635 25.2045 14.1578 25.3563 14.3558 25.4982V27.9626C14.3558 28.1948 14.1819 28.3924 13.9512 28.4224C13.9511 28.4224 13.9513 28.4224 13.9512 28.4224C12.2352 28.6451 9.09939 29.133 7.379 29.8991C5.32744 30.8125 4.00189 32.8538 4.00189 35.0995V40.9252C4.00174 42.6207 5.38103 44 7.07642 44H30.1413C31.8367 44 33.216 42.6207 33.216 40.9253V38.9467C33.216 38.6231 32.9537 38.3609 32.6302 38.3609C32.3067 38.3609 32.0443 38.6232 32.0443 38.9467V40.9253C32.0443 41.9746 31.1906 42.8282 30.1414 42.8282H28.636V39.6333C28.636 39.3097 28.3737 39.0474 28.0502 39.0474C27.7267 39.0474 27.4643 39.3098 27.4643 39.6333V42.8282H21.3739L20.2928 34.837L20.8413 34.0663C20.9839 34.105 21.1299 34.1255 21.276 34.1255C21.6636 34.1255 22.05 33.9898 22.3623 33.7218L24.9961 31.4611C25.4378 31.082 25.6436 30.5237 25.5617 29.962C26.9126 30.2063 28.4106 30.5457 29.3625 30.9695C30.9917 31.6949 32.0445 33.316 32.0445 35.0995V36.2088C32.0445 36.5323 32.3068 36.7946 32.6303 36.7946C32.9538 36.7946 33.2162 36.5323 33.2162 36.2088V35.0995C33.2162 32.8538 31.8906 30.8125 29.8391 29.8991C28.1187 29.1331 24.9831 28.6452 23.267 28.4224C23.0363 28.3924 22.8624 28.1948 22.8624 27.9626V25.4982C23.0603 25.3563 23.2546 25.2045 23.4445 25.041C24.0226 24.5432 24.501 23.9432 24.8674 23.2755L25.1205 23.5286C26.0193 24.4274 27.4742 24.4276 28.3731 23.5286C28.9708 22.9309 29.9895 23.3503 29.9895 24.1981C29.9895 25.4663 31.0212 26.498 32.2894 26.498H33.2095C34.4778 26.498 35.5095 25.4663 35.5095 24.1981C35.5095 23.3525 36.5268 22.9295 37.1259 23.5286C37.5603 23.963 38.1378 24.2023 38.7522 24.2023C39.3666 24.2023 39.9441 23.963 40.3785 23.5287L41.0291 22.878C41.9258 21.9813 41.9258 20.5222 41.0291 19.6255C40.432 19.0284 40.8501 18.0123 41.6945 18.0091C42.9865 18.0042 43.9985 17.0102 43.9985 15.7464V14.7518C43.9985 13.4879 42.9864 12.494 41.6944 12.4891ZM19.3789 34.1H17.839L17.39 33.4693L18.609 32.5916L19.828 33.4693L19.3789 34.1ZM16.2324 32.8589C16.0458 32.9934 15.7935 32.9826 15.6189 32.8327L12.985 30.572C12.7603 30.3791 12.8109 30.1293 12.8317 30.0573C12.8524 29.9859 12.9421 29.7516 13.2291 29.7055C13.4748 29.6694 13.6995 29.638 13.8942 29.612L17.5587 31.904L16.2324 32.8589ZM5.17353 40.9253V35.0995C5.17353 33.3161 6.22627 31.6951 7.85549 30.9696C8.80744 30.5458 10.3054 30.2064 11.6563 29.9621C11.5743 30.5237 11.7802 31.082 12.2218 31.4612L14.8557 33.7219C15.168 33.9899 15.5543 34.1255 15.942 34.1255C16.088 34.1255 16.234 34.1051 16.3766 34.0664L16.9252 34.837L15.844 42.8283H9.75361V39.6334C9.75361 39.3098 9.49127 39.0475 9.16775 39.0475C8.84424 39.0475 8.58189 39.3098 8.58189 39.6334V42.8283H7.07642C6.0272 42.8282 5.17353 41.9745 5.17353 40.9253ZM17.0264 42.8282L18.0488 35.2718H19.169L20.1913 42.8282H17.0264ZM24.3861 30.0573C24.407 30.1292 24.4575 30.3791 24.2327 30.572L21.5989 32.8327C21.4243 32.9824 21.172 32.9933 20.9855 32.8588L19.6592 31.9038L23.3237 29.6118C23.5184 29.6379 23.7431 29.6692 23.9889 29.7053C24.2757 29.7516 24.3654 29.9859 24.3861 30.0573ZM22.0743 29.0112L18.6089 31.1787L15.1435 29.0112C15.3832 28.7252 15.5274 28.3586 15.5274 27.9627V26.1904C17.4936 27.1223 19.7239 27.1224 21.6905 26.1904V27.9627C21.6905 28.3586 21.8346 28.7253 22.0743 29.0112ZM22.6799 24.1531C20.2606 26.2362 16.9578 26.2366 14.5381 24.1531C13.3969 23.1705 12.7229 21.6977 12.6888 20.1125C12.682 19.7939 12.4218 19.5392 12.1031 19.5392H11.6577C11.3313 19.5392 11.0657 19.2737 11.0657 18.9473V17.6421C11.0657 17.4616 11.1483 17.2954 11.2856 17.1841C11.9596 17.1993 12.943 17.3352 13.2343 17.6226C13.4646 17.8497 13.806 17.9159 14.104 17.7913C14.4013 17.6669 14.5934 17.3781 14.5934 17.0556V14.1009C14.5934 13.3996 15.1638 12.8291 15.8651 12.8291C16.9424 12.9083 17.1942 13.2466 18.4942 13.2466H18.7238C20.0686 13.2466 20.577 12.8291 21.3306 12.8291H21.3529C22.0542 12.8291 22.6246 13.3996 22.6246 14.1009V16.8416C22.6246 17.4409 23.1122 17.9285 23.7136 17.9285C24.8224 17.9285 25.1219 17.4134 25.971 17.2173C26.0852 17.3271 26.1522 17.4791 26.1522 17.6422V18.9473C26.1522 19.2738 25.8867 19.5393 25.5603 19.5393H25.1148C24.7961 19.5393 24.5359 19.794 24.5291 20.1126C24.495 21.6978 23.821 23.1705 22.6799 24.1531ZM42.8267 15.7464C42.8267 16.3557 42.3274 16.8349 41.6899 16.8373C39.805 16.8445 38.8688 19.1225 40.2004 20.4541C40.6403 20.894 40.6403 21.6097 40.2004 22.0496L39.5498 22.7002C39.3367 22.9133 39.0535 23.0307 38.752 23.0307C38.4507 23.0307 38.1674 22.9134 37.9543 22.7002C36.6201 21.366 34.3376 22.3087 34.3376 24.1984C34.3376 24.8204 33.8315 25.3265 33.2095 25.3265H32.2893C31.6673 25.3265 31.1612 24.8204 31.1612 24.1984C31.1612 22.311 28.8804 21.3643 27.5444 22.7002C27.1035 23.1412 26.3899 23.1412 25.949 22.7002L25.3664 22.1177C25.5131 21.6644 25.6149 21.1923 25.665 20.708C26.5889 20.6536 27.3239 19.8848 27.3239 18.9474V17.6423C27.3239 17.1109 27.0874 16.6191 26.6892 16.2882V12.9543C26.6892 11.3953 26.0417 9.98547 25.0025 8.97687C25.0509 8.77797 25.1515 8.59555 25.2982 8.44883L25.9489 7.7982C26.162 7.58516 26.4452 7.46773 26.7466 7.46773C27.0479 7.46773 27.3313 7.58508 27.5443 7.7982C28.8786 9.13242 31.161 8.18977 31.161 6.30008C31.161 5.67805 31.6671 5.17195 32.2892 5.17195H33.2093C33.8313 5.17195 34.3374 5.67805 34.3374 6.30008C34.3374 8.1857 36.612 9.13023 37.9481 7.80422C38.4006 7.35531 39.0924 7.34102 39.5232 7.7718L40.2002 8.44883C40.4132 8.66188 40.5306 8.94516 40.5306 9.24648C40.5306 9.54781 40.4133 9.83117 40.2002 10.0442C38.8667 11.3776 39.8073 13.6538 41.6897 13.6609C42.3271 13.6634 42.8264 14.1426 42.8264 14.7519L42.8267 15.7464Z" fill="#212121"/>
</svg>
