<svg width="18" height="18" viewBox="0 0 18 18" fill="none" xmlns="http://www.w3.org/2000/svg">
<rect width="18" height="18" rx="2" fill="#FECD1A"/>
<path d="M4.064 10.8664L3.37964 6.41824C3.32902 6.08974 3.70326 5.8655 3.96913 6.06499L6.10134 7.66396C6.15676 7.70548 6.22006 7.73527 6.28738 7.7515C6.3547 7.76774 6.42462 7.77009 6.49287 7.7584C6.56113 7.74672 6.62629 7.72124 6.68437 7.68353C6.74245 7.64583 6.79224 7.59668 6.8307 7.53909L8.60591 4.87664C8.7934 4.5954 9.20665 4.5954 9.39414 4.87664L11.1694 7.53909C11.2078 7.59668 11.2576 7.64583 11.3157 7.68353C11.3738 7.72124 11.4389 7.74672 11.5072 7.7584C11.5754 7.77009 11.6454 7.76774 11.7127 7.7515C11.78 7.73527 11.8433 7.70548 11.8987 7.66396L14.0309 6.06499C14.2972 5.8655 14.671 6.08974 14.6204 6.41824L13.936 10.8664H4.064ZM13.4212 13.3346H4.57887C4.51126 13.3346 4.4443 13.3213 4.38184 13.2954C4.31937 13.2695 4.26261 13.2316 4.2148 13.1838C4.11825 13.0872 4.064 12.9563 4.064 12.8197V11.6891H13.936V12.8197C13.936 13.104 13.7054 13.3346 13.4212 13.3346Z" fill="black" fill-opacity="0.81"/>
</svg>
