<svg width="20" height="20" viewBox="0 0 20 20" fill="none" xmlns="http://www.w3.org/2000/svg">
<rect width="20" height="20" rx="3" fill="#2A93FC"/>
<path d="M4.51556 12.0738L3.75516 7.13138C3.69891 6.76639 4.11474 6.51722 4.41015 6.73889L6.77926 8.51552C6.84084 8.56165 6.91118 8.59474 6.98598 8.61279C7.06077 8.63083 7.13847 8.63344 7.21431 8.62045C7.29014 8.60747 7.36254 8.57916 7.42708 8.53727C7.49161 8.49537 7.54693 8.44076 7.58966 8.37677L9.56212 5.4185C9.77045 5.106 10.2296 5.106 10.4379 5.4185L12.4104 8.37677C12.4531 8.44076 12.5084 8.49537 12.573 8.53727C12.6375 8.57916 12.7099 8.60747 12.7857 8.62045C12.8616 8.63344 12.9393 8.63083 13.0141 8.61279C13.0889 8.59474 13.1592 8.56165 13.2208 8.51552L15.5899 6.73889C15.8857 6.51722 16.3011 6.76639 16.2449 7.13138L15.4845 12.0738H4.51556ZM14.9124 14.8162H5.08763C5.01251 14.8162 4.93812 14.8014 4.86871 14.7727C4.7993 14.7439 4.73624 14.7018 4.68312 14.6487C4.57583 14.5414 4.51556 14.3959 4.51556 14.2441V12.9879H15.4845V14.2441C15.4845 14.56 15.2283 14.8162 14.9124 14.8162Z" fill="white"/>
</svg>
